<svg xmlns="http://www.w3.org/2000/svg" xml:space="preserve" width="32px" height="32px"
    version="1.1"
    style="shape-rendering:geometricPrecision; text-rendering:geometricPrecision; image-rendering:optimizeQuality; fill-rule:evenodd; clip-rule:evenodd"
    viewBox="0 0 591 591"
    xmlns:xlink="http://www.w3.org/1999/xlink"
    xmlns:xodm="http://www.corel.com/coreldraw/odm/2003">
    <defs>
  <style type="text/css">
   <![CDATA[
   path {
    fill: black;
  }
  @media (prefers-color-scheme: dark) {
    path {
      fill: white;
    }
  }
   ]]>
  </style>
 </defs>
 <g id="Слой_x0020_1">
  <metadata id="CorelCorpID_0Corel-Layer"/>
  <path class="fil0" d="M31.34 563.01l524.52 0.08 0.65 -526.97 -526.93 -0.89c0,88.46 0,176.93 0,265.39 0,35.06 -3.54,246.76 1.76,262.39zm6.8 -10.34l508.36 0.53 0 -509.07 -508.23 0.01 -0.13 508.53zm139.14 -406.92c-30.24,-1.63 -54.88,-0.99 -73.92,16.17 -15.94,14.38 -27.35,37.95 -25.9,67.47 15.96,-9.92 28.11,-31.33 48.18,-39.11 -8.25,18.59 -21.69,30.95 -23.5,58.14 -1.61,24.27 9.84,48 25.78,57.34 0.65,-20.63 5.92,-71.5 25.26,-81.3 2.9,57.04 17.38,96.58 74.67,99.74 -5.68,-12.22 -18.96,-22.31 -29.06,-53.44 -6.11,-18.83 -11.15,-52.96 -2.75,-72.2 41.4,6.92 60.44,73.3 65.6,111.7 3.05,22.71 12.81,150.77 8.92,166.85l-15.04 -0.12 -0.97 -33.81c-25.02,-0.21 -54.86,-1.71 -78.32,2.58 -71.87,13.17 -53.06,60.64 105.25,64.76 43.72,1.14 110.14,-0.22 145.37,-18.43 20.29,-10.49 36.96,-29.29 5.89,-42.37 -22.5,-9.47 -50.88,-6.04 -76.25,-6.75 -0.78,-37.45 6.75,-77.18 17.96,-109.81 7.71,-22.45 29.32,-73.17 42.21,-84.23 20.17,37.63 -3.8,57.69 -16.17,83.12 18.4,-0.89 31.85,-8.77 39.42,-18.94 10.38,-13.97 8.18,-28.28 10.75,-47.31 20.54,11.65 17.01,37.35 16.5,65.97 12.18,-5.18 23.77,-25.22 24.09,-43.75 0.44,-26.1 -14.13,-34.93 -22.64,-48.06 34.03,1.14 22.63,21 33.85,31.45 11.79,-17.69 4.13,-37.28 -7.25,-49.1 -16.15,-16.8 -23.52,-18.76 -53.2,-17.76 -7.49,-14.68 -8.29,-34.04 -43.09,-42.15 -21.89,-5.09 -55.34,-0.4 -59.12,25.99 15.86,-1.8 42.78,-5.79 49.17,8.85 -40.24,2.83 -49.34,24.93 -49.11,66.27 14.4,-10.49 21.97,-35.66 64.74,-32.26 -14.84,19.39 -15.35,11.53 -34.23,45.65 -30.2,54.56 -38.79,136.86 -39.25,199.55l-25.38 0.84c1.48,-83.44 -6.57,-204.37 -59.54,-272.78 -6.48,-8.37 -20.68,-19.8 -23.52,-24.69 77.77,-5.62 78.27,32.04 99.97,57.75 9.46,-54.48 -7.92,-102.61 -75.16,-100.03 9.02,-31.13 40.05,-26.58 73.19,-25.53 -12.06,-33.65 -83.27,-51.71 -123,-8.03 -20.53,22.57 -13.91,30.15 -20.4,41.77z"/>
 </g>
</svg>